<?xml version="1.0" encoding="utf-8"?>
<!-- Generator: Adobe Illustrator 16.0.0, SVG Export Plug-In . SVG Version: 6.00 Build 0)  -->
<!DOCTYPE svg PUBLIC "-//W3C//DTD SVG 1.1//EN" "http://www.w3.org/Graphics/SVG/1.1/DTD/svg11.dtd">
<svg version="1.1" id="Layer_1" xmlns="http://www.w3.org/2000/svg" xmlns:xlink="http://www.w3.org/1999/xlink" x="0px" y="0px"
	 width="511px" height="463px" viewBox="0 0 511 463" enable-background="new 0 0 511 463" xml:space="preserve">
<metadata><?xpacket begin="﻿" id="W5M0MpCehiHzreSzNTczkc9d"?>
<x:xmpmeta xmlns:x="adobe:ns:meta/" x:xmptk="Adobe XMP Core 5.3-c011 66.145661, 2012/02/06-14:56:27        ">
   <rdf:RDF xmlns:rdf="http://www.w3.org/1999/02/22-rdf-syntax-ns#">
      <rdf:Description rdf:about=""
            xmlns:xmp="http://ns.adobe.com/xap/1.0/"
            xmlns:xmpGImg="http://ns.adobe.com/xap/1.0/g/img/">
         <xmp:CreatorTool>Adobe Illustrator CS6 (Macintosh)</xmp:CreatorTool>
         <xmp:CreateDate>2014-05-05T16:16:11-04:00</xmp:CreateDate>
         <xmp:Thumbnails>
            <rdf:Alt>
               <rdf:li rdf:parseType="Resource">
                  <xmpGImg:width>256</xmpGImg:width>
                  <xmpGImg:height>228</xmpGImg:height>
                  <xmpGImg:format>JPEG</xmpGImg:format>
                  <xmpGImg:image>/9j/4AAQSkZJRgABAgEASABIAAD/7QAsUGhvdG9zaG9wIDMuMAA4QklNA+0AAAAAABAASAAAAAEA&#xA;AQBIAAAAAQAB/+4ADkFkb2JlAGTAAAAAAf/bAIQABgQEBAUEBgUFBgkGBQYJCwgGBggLDAoKCwoK&#xA;DBAMDAwMDAwQDA4PEA8ODBMTFBQTExwbGxscHx8fHx8fHx8fHwEHBwcNDA0YEBAYGhURFRofHx8f&#xA;Hx8fHx8fHx8fHx8fHx8fHx8fHx8fHx8fHx8fHx8fHx8fHx8fHx8fHx8fHx8f/8AAEQgA5AEAAwER&#xA;AAIRAQMRAf/EAaIAAAAHAQEBAQEAAAAAAAAAAAQFAwIGAQAHCAkKCwEAAgIDAQEBAQEAAAAAAAAA&#xA;AQACAwQFBgcICQoLEAACAQMDAgQCBgcDBAIGAnMBAgMRBAAFIRIxQVEGE2EicYEUMpGhBxWxQiPB&#xA;UtHhMxZi8CRygvElQzRTkqKyY3PCNUQnk6OzNhdUZHTD0uIIJoMJChgZhJRFRqS0VtNVKBry4/PE&#xA;1OT0ZXWFlaW1xdXl9WZ2hpamtsbW5vY3R1dnd4eXp7fH1+f3OEhYaHiImKi4yNjo+Ck5SVlpeYmZ&#xA;qbnJ2en5KjpKWmp6ipqqusra6voRAAICAQIDBQUEBQYECAMDbQEAAhEDBCESMUEFURNhIgZxgZEy&#xA;obHwFMHR4SNCFVJicvEzJDRDghaSUyWiY7LCB3PSNeJEgxdUkwgJChgZJjZFGidkdFU38qOzwygp&#xA;0+PzhJSktMTU5PRldYWVpbXF1eX1RlZmdoaWprbG1ub2R1dnd4eXp7fH1+f3OEhYaHiImKi4yNjo&#xA;+DlJWWl5iZmpucnZ6fkqOkpaanqKmqq6ytrq+v/aAAwDAQACEQMRAD8A9U4q7FXYq7FXYq7FXYq7&#xA;FXYq7FXYq7FXYq7FXYq7FXYq7FXYq7FXYq7FXYq7FXYq7FXYq7FXYq7FXYq7FXYq7FXYq7FXYq7F&#xA;XYq7FXYq7FXYq7FXYq7FXYq7FXYq7FXYq7FXYq7FXYq7FXYq7FXYq7FXYq7FXYq7FXYq7FXYq7FX&#xA;Yq7FXYq7FXYq7FXYq7FXYq7FXYq7FXYq7FXYq7FXYq7FXYq7FXYq7FXYq7FXYq7FXYq7FXYq7FXY&#xA;q7FXYq7FXYq7FXYq7FXYq7FXYq7FXYq7FXYq7FXYq7FXYq7FXYq7FXYq7FXYq7FXYq7FXYq7FXYq&#xA;7FXYq7FXYq7FXYq7FXYq7FXYq7FXYq7FXYq7FXYq7FXYq7FXYq7FXYq7FXYq7FXYq7FXYq7FXYq7&#xA;FXYq7FXYq7FXYq7FXYq7FXYq7FXYq7FXYq7FXYq7FXYq7FXYq7FXYq7FXYq7FXYq7FXYq7FXYq7F&#xA;XYq7FXYq7FXYq7FXYq7FXYq7FXYq7FXYq7FXYq7FXYq7FXYq7FXYq7FXYq7FXYq7FXYq7FXYq7FX&#xA;Yq7FXYq7FXYq7FXYq7FXYq7FXYq7FXYq7FXYq7FXYq7FXYq7FXYq7FXYq7FXYq7FXYq7FXYq7FXY&#xA;q7FXYq7FXYq7FXYq7FXYq7FXYq7FXYq7FXYq7FXYq7FXYq7FXYq7FXYq7FXYq7FXYq7FXYq7FXYq&#xA;7FXYq7FXYq7FXYq7FXYq7FXYq7FXYq7FXYq7FXYq7FXYq7FXYq7FXYq7FXYq7FXYq7FXYq7FXYq7&#xA;FXYq7FXYq7FXYq7FXYq7FXYq7FXYq7FXYq7FXYq7FXYq7FXYq7FXYq7FXYq7FXYq7FXYq7FXYq7F&#xA;XYq7FXYq7FXYq7FXYq7FXYq7FXYq7FXYq7FXYq7FXYq7FXYq7FXYq7FXYq7FXYq7FXYq7FXYq7FX&#xA;Yq7FXYq7FXYq7FXYq7FXYq7FXYq7FXYq7FXYq7FXYq7FXYq7FXYq7FXYq7FXYq7FXYq7FXYq7FXY&#xA;q7FXYq7FXYq7FXYq7FXYq7FXYq7FXYq7FXYq7FXYq7FXYq7FXYq7FXYq7FXYq7FXYq7FXYq7FXYq&#xA;7FXYq7FXYq7FXYq7FXYq7FXYq7FXYq7FXYq7FXYq7FXYq7FXYq7FXYq7FXYq7FXYq7FXYq7FXYq7&#xA;FXYq7FXYq7FXYq7FXYq7FXYq7FXYq7FXYq7FXYq7FXYq7FXYq7FXYq7FXYq7FXYq7FXYq7FXYq7F&#xA;XYq7FXYq7FXYq7FXYq7FXYq7FXYq7FXYq7FXYq7FXYq7FXYq7FXYq7FXYq7FXYq7FXYq7FXYq7FX&#xA;Yq7FXYq7FXYq7FXYq7FXYq7FXYq7FXYq7FXYq7FXYq7FXYq7FXYq7FXYq7FXYq7FXYq7FXYq7FXY&#xA;q7FXYq7FXYq7FXYq7FXYq7FXYq7FXYq7FXYq7FXYq7FXYq7FXYq7FXYq7FXYq7FXYq7FXYq7FXYq&#xA;7FXYq7FXYq7FXYq7FXYq7FXYq7FXYq7FXYq7FXYq7FXYq7FXYq7FXYq7FXYq7FXYq7FXYq7FXYq7&#xA;FXYq7FXYq7FXYq7FXYq7FXYq7FXYq7FXYq7FXYq7FXYq7FXYq7FXYq7FXYq7FXYq7FXYq7FXYq7F&#xA;XYq7FXYq7FXYq7FXYq7FXYq7FXYq7FXYq7FXYq7FXYq7FXYq7FXYq7FXYq7FXYq7FXYq7FXYq7FX&#xA;Yq7FXYq7FXYq7FXYq7FXYq7FXYq7FXYq7FXYq7FXYq7FXYq7FXYq7FXYq7FXYq7FXYq7FXYq7FXY&#xA;q7FXYq7FXYq7FXYq7FXYq7FXYq7FXYq7FXYq7FXYq7FXYq7FXYq7FXYq7FXYq7FXYq7FXYq7FXYq&#xA;7FXYq7FXYq7FXYq7FXYq7FXYq7FXYq7FXYq7FXYq7FXYq7FXYq7FXYq7FXYq7FXYq7FXYq7FXYq7&#xA;FXYq7FXYq7FXYq7FXYq7FXYq7FXYq7FXYq7FXYq7FXYq7FXYq7FXYq7FXYq7FXYq7FXYq7FXYq7F&#xA;XYq7FXYq7FXYq7FXYq7FXYq7FXYq7FXYq7FXYq7FXYq7FXYq7FXYq7FXYq7FXYq7FXYq7FXYq7FX&#xA;Yq7FXYq7FXYq7FXYq7FXYq7FXYq7FXYq7FXYq7FXYq7FXYq7FXYq7FXYq7FXYq7FXYq7FXYq7FXY&#xA;q7FXYq7FXYq7FXYq7FXYq7FXYq7FXYq7FXYq7FXYq7FXYq7FXYq7FXYq7FXYq7FXYq7FXYq7FXYq&#xA;7FXYq7FXYq7FXYq7FXYq7FXYq7FXYq7FXYq7FXYq7FXYq7FXYq7FXYq7FXYq7FXYq7FXYq7FXYq7&#xA;FXYq7FXYq7FXYq7FXYq7FX//2Q==</xmpGImg:image>
               </rdf:li>
            </rdf:Alt>
         </xmp:Thumbnails>
      </rdf:Description>
      <rdf:Description rdf:about=""
            xmlns:xmpTPg="http://ns.adobe.com/xap/1.0/t/pg/"
            xmlns:stDim="http://ns.adobe.com/xap/1.0/sType/Dimensions#"
            xmlns:xmpG="http://ns.adobe.com/xap/1.0/g/">
         <xmpTPg:MaxPageSize rdf:parseType="Resource">
            <stDim:w>511.000000</stDim:w>
            <stDim:h>463.000000</stDim:h>
            <stDim:unit>Points</stDim:unit>
         </xmpTPg:MaxPageSize>
         <xmpTPg:NPages>1</xmpTPg:NPages>
         <xmpTPg:HasVisibleTransparency>False</xmpTPg:HasVisibleTransparency>
         <xmpTPg:HasVisibleOverprint>False</xmpTPg:HasVisibleOverprint>
         <xmpTPg:SwatchGroups>
            <rdf:Seq>
               <rdf:li rdf:parseType="Resource">
                  <xmpG:groupName>Default Swatch Group</xmpG:groupName>
                  <xmpG:groupType>0</xmpG:groupType>
               </rdf:li>
            </rdf:Seq>
         </xmpTPg:SwatchGroups>
      </rdf:Description>
      <rdf:Description rdf:about=""
            xmlns:dc="http://purl.org/dc/elements/1.1/">
         <dc:format>image/svg+xml</dc:format>
      </rdf:Description>
   </rdf:RDF>
</x:xmpmeta>
                                                                                                    
                                                                                                    
                                                                                                    
                                                                                                    
                                                                                                    
                                                                                                    
                                                                                                    
                                                                                                    
                                                                                                    
                                                                                                    
                                                                                                    
                                                                                                    
                                                                                                    
                                                                                                    
                                                                                                    
                                                                                                    
                                                                                                    
                                                                                                    
                                                                                                    
                                                                                                    
                           
<?xpacket end="w"?>
	</metadata>
<polygon fill="none" points="162.125,128.775 161.525,130.525 162.775,129.675 "/>
<polygon fill="none" points="152.525,147.025 162.275,157.175 163.125,157.175 155.625,149.775 "/>
<polygon fill="none" points="147.275,213.425 161.625,226.675 161.625,225.775 148.125,213.275 "/>
<polygon fill="none" points="144.525,213.675 161.625,229.925 161.625,226.675 147.275,213.425 "/>
<polygon fill="none" points="161.625,225.775 161.525,212.175 148.125,213.275 "/>
<polygon fill="none" points="314.625,252.775 324.025,245.675 307.125,256.425 306.625,256.925 314.375,252.925 "/>
<polygon fill="none" points="324.025,245.525 324.375,245.425 326.625,243.675 320.025,245.525 307.125,256.425 324.025,245.675 "/>
<polygon fill="none" points="314.025,253.925 314.375,252.925 306.625,256.925 306.375,257.025 305.875,257.425 305.775,258.175 
	305.025,262.775 303.625,273.025 "/>
<polygon fill="none" points="261.875,224.525 297.125,296.925 298.775,298.525 268.525,226.675 267.275,225.925 "/>
<polygon fill="none" points="252.275,204.925 252.775,205.925 257.525,206.925 258.775,207.525 323.875,205.525 324.375,202.525 "/>
<polygon fill="none" points="252.775,205.925 261.875,224.525 267.275,225.925 268.525,226.675 274.625,232.425 258.775,207.525 
	257.525,206.925 "/>
<polygon fill="none" points="324.025,245.525 324.025,245.675 314.625,252.775 340.375,252.275 340.275,251.925 327.525,243.775 
	326.625,243.675 324.375,245.425 "/>
<polygon fill="none" points="308.875,270.925 323.775,278.925 324.025,278.775 335.375,263.025 309.025,270.675 "/>
<polygon fill="none" points="303.375,273.775 314.025,286.175 308.875,270.925 "/>
<polygon fill="none" points="309.025,270.675 314.025,253.925 303.625,273.025 303.375,273.775 308.875,270.925 "/>
<polygon fill="none" points="339.525,248.775 339.125,248.175 338.125,247.775 327.525,243.775 340.275,251.925 "/>
<polygon fill="none" points="335.525,262.925 340.375,252.525 340.375,252.275 314.625,252.775 "/>
<polygon fill="none" points="314.375,252.925 314.025,253.925 309.025,270.675 335.375,263.025 335.525,262.925 314.625,252.775 "/>
<polygon fill="none" points="333.775,187.775 334.025,187.525 334.125,187.425 333.775,187.275 329.875,189.925 "/>
<polygon fill="none" points="314.025,286.175 314.025,286.275 314.375,286.675 323.775,278.925 308.875,270.925 "/>
<polygon fill="none" points="335.525,262.925 345.875,276.675 346.025,276.025 340.375,252.525 "/>
<polygon fill="none" points="335.375,263.025 324.025,278.775 345.875,276.675 335.525,262.925 "/>
<polygon fill="none" points="340.375,252.525 346.025,276.025 346.775,273.175 349.375,262.175 349.525,261.275 349.125,260.775 
	348.375,259.925 340.375,252.275 "/>
<polygon fill="none" points="333.775,187.275 333.275,186.525 327.525,191.275 329.875,189.925 "/>
<polygon fill="none" points="323.775,278.925 333.275,290.275 333.775,290.175 341.775,281.275 345.875,276.675 324.025,278.775 "/>
<polygon fill="none" points="340.275,251.925 340.375,252.275 348.375,259.925 342.275,251.925 339.525,248.775 "/>
<polygon fill="none" points="149.375,57.275 148.375,61.425 150.275,58.775 149.525,57.275 "/>
<polygon fill="none" points="324.375,202.525 325.525,195.525 269.025,197.425 268.875,202.525 251.875,204.175 252.275,204.925 "/>
<polygon fill="none" points="296.775,296.925 297.125,296.925 261.875,224.525 252.775,205.925 252.275,204.925 251.875,204.175 
	241.625,205.025 277.375,278.525 278.025,279.675 279.775,281.275 280.125,281.275 "/>
<polygon fill="none" points="323.875,205.525 323.875,206.525 333.525,188.525 333.775,187.775 329.875,189.925 327.525,191.275 
	327.375,191.525 327.025,191.775 326.625,192.025 325.875,192.775 325.525,195.525 324.375,202.525 "/>
<polygon fill="none" points="314.375,286.675 332.525,290.175 333.275,290.275 323.775,278.925 "/>
<polygon fill="none" points="314.025,286.275 314.025,286.175 303.375,273.775 303.625,273.025 305.025,262.775 274.625,232.425 
	268.525,226.675 298.775,298.525 313.375,312.175 340.625,298.525 332.525,290.175 314.375,286.675 "/>
<polygon fill="none" points="348.875,345.175 349.375,345.525 348.025,336.775 348.025,336.675 347.875,336.175 347.775,335.525 
	347.625,334.775 347.525,334.175 347.375,333.525 347.275,332.925 347.125,332.275 347.025,331.675 346.775,330.025 
	346.625,329.675 346.025,326.425 340.625,298.525 313.375,312.175 "/>
<polygon fill="none" points="298.775,298.525 297.125,296.925 296.775,296.925 280.125,281.275 279.775,281.275 336.375,338.675 
	336.625,338.925 348.875,345.175 313.375,312.175 "/>
<polygon fill="none" points="323.775,207.025 328.875,203.775 333.525,188.525 323.875,206.525 "/>
<polygon fill="none" points="210.275,128.775 213.625,126.675 211.125,127.925 "/>
<polygon fill="none" points="271.275,76.175 269.775,72.925 263.875,83.925 273.275,77.025 "/>
<polygon fill="none" points="224.375,143.675 218.775,151.525 229.775,150.425 224.525,143.675 "/>
<polygon fill="none" points="197.275,152.525 197.125,152.775 198.775,153.525 218.775,151.525 224.375,143.675 "/>
<polygon fill="none" points="272.375,82.525 272.525,83.175 308.525,139.025 314.775,138.175 277.275,79.675 275.375,82.675 "/>
<polygon fill="none" points="272.625,85.425 271.875,85.425 268.125,85.175 303.125,139.675 308.525,139.025 272.525,83.175 "/>
<polygon fill="none" points="166.375,139.525 173.025,156.175 179.125,155.525 168.275,138.175 "/>
<polygon fill="none" points="197.525,153.675 198.775,153.525 197.125,152.775 "/>
<polygon fill="none" points="168.275,138.175 188.875,123.525 186.375,119.425 183.775,114.925 162.775,129.675 161.525,130.525 
	153.025,136.675 156.775,146.275 166.375,139.525 "/>
<polygon fill="none" points="272.625,85.425 272.525,83.175 272.375,82.525 275.375,82.675 277.275,79.675 277.525,78.925 
	273.275,77.025 263.875,83.925 271.875,85.425 "/>
<polygon fill="none" points="156.775,146.275 155.625,149.775 163.125,157.175 173.025,156.175 166.375,139.525 "/>
<polygon fill="none" points="196.125,153.775 197.525,153.675 197.125,152.775 "/>
<polygon fill="none" points="197.275,152.525 202.275,135.675 194.125,154.025 196.125,153.775 197.125,152.775 "/>
<polygon fill="none" points="360.125,189.175 359.775,189.675 363.275,193.025 "/>
<polygon fill="none" points="240.125,205.175 247.525,220.525 273.875,274.425 274.125,274.775 274.275,275.175 277.375,278.525 
	241.625,205.025 "/>
<polygon fill="none" points="324.875,208.675 325.525,209.425 326.025,209.925 326.025,210.025 333.125,217.775 333.525,218.175 
	329.025,203.925 328.875,203.775 323.775,207.025 "/>
<polygon fill="none" points="221.275,213.425 273.875,274.425 247.525,220.525 "/>
<polygon fill="none" points="345.125,220.925 349.525,221.275 335.775,218.775 "/>
<polygon fill="none" points="331.525,216.925 333.125,217.775 326.025,210.025 "/>
<polygon fill="none" points="333.775,218.425 342.375,210.675 329.025,203.925 333.525,218.175 "/>
<polygon fill="none" points="335.275,218.675 335.525,218.775 335.775,218.775 349.525,221.275 349.625,221.275 350.125,221.425 
	350.875,221.425 342.375,210.675 333.775,218.425 "/>
<polygon fill="none" points="240.775,143.925 239.625,142.275 230.625,133.675 234.375,149.925 239.275,149.425 239.625,147.925 "/>
<polygon fill="none" points="233.125,133.775 254.775,83.675 256.125,80.425 257.125,78.275 257.625,73.525 258.025,68.425 
	230.625,130.775 230.775,131.025 "/>
<polygon fill="none" points="230.625,130.775 223.625,127.675 223.525,127.525 217.625,125.175 230.375,133.275 230.775,131.025 "/>
<polygon fill="none" points="255.275,84.175 255.875,84.175 263.625,83.925 256.125,80.425 254.775,83.675 "/>
<polygon fill="none" points="230.625,133.675 239.625,142.275 233.125,133.775 230.775,131.025 230.375,133.275 230.375,133.525 
	230.525,133.525 "/>
<polygon fill="none" points="268.125,85.175 271.875,85.425 263.875,83.925 263.625,83.925 255.875,84.175 "/>
<polygon fill="none" points="230.525,133.525 230.375,133.525 224.525,143.675 229.775,150.425 234.375,149.925 230.625,133.675 "/>
<polygon fill="none" points="394.525,129.775 388.025,134.175 389.375,136.525 392.125,139.425 399.525,147.025 "/>
<polygon fill="none" points="405.275,429.425 407.275,420.774 399.775,426.675 "/>
<polygon fill="none" points="407.275,419.274 390.125,363.925 379.025,410.524 407.375,420.675 "/>
<polygon fill="none" points="438.775,328.275 425.375,328.425 423.525,332.675 435.125,338.275 "/>
<polygon fill="none" points="499.375,165.175 499.275,165.175 499.125,165.425 "/>
<polygon fill="none" points="499.275,165.425 499.125,165.425 499.025,165.675 "/>
<polygon fill="none" points="425.375,107.675 414.275,102.025 427.625,110.175 "/>
<polygon fill="none" points="443.525,349.525 438.775,328.275 435.125,338.275 "/>
<polygon fill="none" points="411.375,355.675 412.775,356.775 408.625,352.275 "/>
<polygon fill="none" points="499.525,164.925 499.375,164.925 499.275,165.175 "/>
<polygon fill="none" points="141.775,43.675 148.525,45.025 138.275,36.175 133.275,53.425 145.275,49.775 "/>
<polygon fill="none" points="138.125,36.025 122.375,38.025 122.375,38.175 133.275,53.425 138.275,36.175 "/>
<polygon fill="none" points="143.275,20.275 122.375,38.025 138.125,36.025 "/>
<polygon fill="none" points="427.775,110.525 423.375,120.425 433.125,135.775 "/>
<polygon fill="none" points="121.025,24.675 119.375,49.275 122.375,38.175 122.375,38.025 "/>
<polygon fill="none" points="363.625,237.675 371.775,232.175 361.525,210.175 354.375,217.925 "/>
<polygon fill="none" points="260.275,45.525 253.525,39.675 242.375,54.175 260.125,45.675 "/>
<polygon fill="none" points="260.125,45.675 242.375,54.175 242.125,54.425 250.775,60.425 "/>
<polygon fill="none" points="247.625,73.175 248.525,71.425 248.775,71.025 249.275,71.175 250.525,60.775 243.275,71.525 
	242.775,71.775 243.275,72.525 246.625,70.175 "/>
<polygon fill="none" points="250.525,60.775 250.775,60.425 242.125,54.425 242.775,71.775 243.275,71.525 "/>
<polygon fill="none" points="242.125,85.675 243.275,83.275 243.375,83.025 247.625,73.425 247.625,73.175 246.625,70.175 
	243.275,72.525 192.275,108.775 197.375,117.275 "/>
<polygon fill="none" points="156.025,48.175 160.875,35.925 154.025,44.775 "/>
<polygon fill="none" points="152.025,41.925 148.525,45.025 141.775,43.675 145.275,49.775 146.025,51.025 146.375,51.675 
	146.525,51.925 146.625,52.175 146.875,52.525 147.025,52.775 147.275,53.175 147.375,53.425 147.525,53.675 198.125,138.275 
	202.775,134.025 203.025,133.775 204.025,133.025 206.025,131.675 197.375,117.275 192.275,108.775 156.025,48.175 154.025,44.775 
	"/>
<polygon fill="none" points="274.275,52.425 271.625,40.675 260.275,45.525 "/>
<polygon fill="none" points="392.025,116.275 391.625,116.425 391.625,116.525 "/>
<polygon fill="none" points="275.525,66.175 273.125,68.775 271.525,69.675 268.525,69.925 266.525,70.025 266.875,70.425 
	389.025,123.775 389.875,118.175 390.025,117.675 391.625,116.525 391.625,116.425 282.875,69.275 282.275,69.025 "/>
<polygon fill="none" points="138.275,36.175 148.525,45.025 152.025,41.925 154.025,44.775 160.875,35.925 160.875,35.775 
	160.875,35.525 138.125,36.025 "/>
<polygon fill="none" points="282.275,69.025 282.875,69.275 283.525,53.275 274.275,52.425 "/>
<polygon fill="none" points="271.625,40.675 253.525,39.675 260.275,45.525 "/>
<polygon fill="none" points="283.525,53.275 271.625,40.675 274.275,52.425 "/>
<polygon fill="none" points="412.625,101.925 404.775,105.425 392.025,116.175 400.375,110.525 "/>
<polygon fill="none" points="127.625,112.525 125.375,111.925 125.125,112.175 124.875,111.675 115.625,109.425 76.775,99.925 
	134.525,133.775 "/>
<polygon fill="none" points="91.025,160.525 146.125,140.775 134.525,133.775 76.775,99.925 76.275,99.775 90.875,160.425 "/>
<polygon fill="none" points="126.125,55.675 132.025,59.425 133.275,53.525 133.275,53.425 119.275,51.025 124.525,54.675 
	124.775,54.775 "/>
<polygon fill="none" points="125.125,112.175 125.375,111.925 134.025,59.925 132.025,59.425 126.125,55.675 124.775,54.775 
	124.525,54.675 115.625,109.425 124.875,111.675 "/>
<polygon fill="none" points="33.625,103.175 84.125,153.775 86.775,156.275 87.525,157.025 90.375,159.925 90.775,160.275 
	90.875,160.425 76.275,99.775 35.875,101.925 32.775,102.175 "/>
<polygon fill="none" points="50.625,123.925 53.775,126.525 87.025,159.025 110.875,181.675 110.875,179.175 97.125,166.275 
	97.025,166.025 95.375,164.675 95.025,164.175 93.625,163.025 93.125,162.425 92.025,161.525 91.025,160.525 90.875,160.425 
	90.775,160.275 90.375,159.925 87.525,157.025 86.775,156.275 84.125,153.775 33.625,103.175 32.775,102.175 35.875,101.925 
	32.025,99.675 10.525,83.925 32.125,104.925 "/>
<polygon fill="none" points="122.375,38.025 143.275,20.275 121.525,22.675 121.025,22.775 120.875,23.175 120.775,23.675 
	121.025,24.675 "/>
<polygon fill="none" points="143.275,20.275 143.525,19.925 145.625,15.025 145.275,15.025 121.525,22.675 "/>
<polygon fill="none" points="144.125,20.425 156.125,27.025 145.625,15.025 143.525,19.925 "/>
<polygon fill="none" points="160.875,35.525 156.125,27.025 144.125,20.425 "/>
<polygon fill="none" points="143.525,19.925 143.275,20.275 138.125,36.025 160.875,35.525 144.125,20.425 "/>
<polygon fill="none" points="145.275,15.025 129.025,15.425 121.025,22.775 121.525,22.675 "/>
<polygon fill="none" points="121.025,24.675 120.775,23.675 114.275,41.675 119.025,50.525 119.375,49.275 "/>
<polygon fill="none" points="122.375,38.175 119.375,49.275 119.025,50.525 119.025,50.675 119.275,51.025 133.275,53.425 "/>
<polygon fill="none" points="390.025,117.675 389.875,118.175 389.025,123.775 388.525,127.925 388.525,128.675 389.125,128.675 
	388.375,132.775 388.775,132.675 400.025,111.675 400.375,110.525 392.025,116.175 392.025,116.275 391.625,116.525 "/>
<polygon fill="none" points="331.125,385.175 327.275,384.025 331.275,387.925 331.275,385.425 "/>
<polygon fill="none" points="377.375,412.175 379.275,413.024 379.025,410.774 "/>
<polygon fill="none" points="331.275,385.425 331.275,387.925 333.525,389.025 331.625,385.525 "/>
<polygon fill="none" points="331.275,385.425 331.625,385.525 333.525,389.025 336.025,390.025 348.375,393.425 347.625,390.025 "/>
<polygon fill="none" points="349.875,346.275 349.625,346.175 347.525,388.525 347.625,390.025 378.875,410.274 365.275,380.175 
	354.875,357.425 351.875,350.775 "/>
<polygon fill="none" points="379.275,413.024 399.775,426.675 407.275,420.774 407.375,420.675 379.025,410.524 379.025,410.774 "/>
<polygon fill="none" points="348.375,393.425 377.375,412.175 379.025,410.774 379.025,410.524 378.875,410.274 347.625,390.025 "/>
<polygon fill="none" points="363.625,351.275 355.775,346.025 356.275,341.775 365.775,341.175 357.775,331.675 351.875,350.775 
	354.875,357.425 372.875,360.525 379.025,357.175 373.775,350.675 "/>
<polygon fill="none" points="216.375,276.025 216.375,277.675 254.875,312.925 255.775,312.025 "/>
<polygon fill="none" points="255.875,312.025 255.775,312.025 254.875,312.925 327.275,384.025 331.125,385.175 "/>
<polygon fill="none" points="410.025,345.025 410.525,345.525 410.525,345.175 410.375,345.025 "/>
<polygon fill="none" points="399.775,147.275 400.275,147.425 400.525,147.525 400.775,147.525 419.625,150.675 420.125,150.675 
	410.775,137.425 "/>
<polygon fill="none" points="420.125,150.675 420.625,150.525 433.375,136.525 410.775,137.425 "/>
<polygon fill="none" points="405.775,149.025 409.775,150.175 411.875,150.775 419.625,150.675 400.775,147.525 "/>
<polygon fill="none" points="423.375,120.425 427.775,110.525 427.625,110.175 400.625,110.525 "/>
<polygon fill="none" points="433.125,135.775 433.375,136.525 436.875,120.675 427.625,110.175 427.775,110.525 "/>
<polygon fill="none" points="423.375,120.425 423.125,120.525 410.775,137.425 433.375,136.525 433.125,135.775 "/>
<polygon fill="none" points="400.525,147.525 400.275,147.425 399.775,147.275 399.525,147.175 397.525,146.775 397.625,148.775 
	397.775,148.775 403.775,211.025 404.375,216.925 404.875,223.525 405.025,223.525 414.625,323.025 414.775,323.425 
	415.125,326.925 415.125,328.175 415.275,328.275 416.025,328.925 416.375,329.175 416.525,329.275 417.025,329.525 
	418.775,331.275 422.775,334.675 423.025,334.275 422.875,333.175 422.525,332.925 422.775,331.925 405.775,149.025 
	400.775,147.525 "/>
<polygon fill="none" points="365.775,341.175 356.275,341.775 355.775,346.025 404.875,342.525 405.525,338.275 "/>
<polygon fill="none" points="406.375,332.525 405.525,338.275 404.875,342.525 408.275,340.675 410.875,336.175 "/>
<polygon fill="none" points="363.625,351.275 373.775,350.675 393.025,349.275 404.875,342.525 355.775,346.025 "/>
<polygon fill="none" points="418.775,331.275 416.775,340.425 412.775,337.525 410.375,345.025 435.025,338.275 435.125,338.275 
	423.525,332.675 423.025,334.275 422.775,334.675 "/>
<polygon fill="none" points="410.525,345.175 424.375,352.675 435.025,338.275 410.375,345.025 "/>
<polygon fill="none" points="412.775,337.525 410.875,336.175 408.275,340.675 410.875,339.425 410.025,345.025 410.375,345.025 "/>
<polygon fill="none" points="400.625,110.525 427.625,110.175 414.275,102.025 414.025,101.925 413.775,101.775 413.525,101.675 
	412.625,101.925 400.375,110.525 "/>
<polygon fill="none" points="436.875,323.925 426.625,320.025 438.625,327.675 "/>
<polygon fill="none" points="425.025,320.775 425.625,326.775 425.375,328.425 438.775,328.275 438.625,327.675 426.625,320.025 
	426.025,320.025 425.375,320.675 "/>
<polygon fill="none" points="443.525,349.525 443.625,350.025 446.525,336.425 446.125,335.275 438.775,328.275 "/>
<polygon fill="none" points="480.375,163.275 492.875,177.025 493.025,176.675 490.525,153.775 490.275,153.525 "/>
<path fill="none" d="M480.275,163.425l-9.15,9.6c0,0.6,1.583,1.483,4.75,2.65l-1.35,1.1l18.35,0.25l-12.5-13.75L480.275,163.425z"/>
<polygon fill="none" points="425.375,320.675 426.025,320.025 425.025,320.025 425.025,320.775 "/>
<polygon fill="none" points="409.775,150.175 405.775,149.025 422.775,331.925 422.525,332.925 422.875,333.175 423.025,334.275 
	423.525,332.675 425.375,328.425 425.625,326.775 425.025,320.775 425.025,320.025 415.625,216.175 414.525,203.675 "/>
<polygon fill="none" points="438.775,328.275 446.125,335.275 436.875,323.925 438.625,327.675 "/>
<polygon fill="none" points="408.625,352.275 412.775,356.775 414.525,358.675 412.025,350.425 "/>
<path fill="none" d="M414.125,349.175c-2.667-1.833-3.866-3.05-3.6-3.649l-0.5-0.5l0.85-5.601l-2.6,1.25l-3.4,1.851l-11.85,6.75
	l-14,7.899l-6.15,3.351l-4.5,2.649l13.65-0.649h2.35l4.65,0.75l19.6-11l3.4-1.851L414.125,349.175z"/>
<polygon fill="none" points="382.025,362.525 368.375,363.175 372.875,360.525 354.875,357.425 365.275,380.175 389.875,363.525 
	389.025,363.275 384.375,362.525 "/>
<polygon fill="none" points="414.875,358.925 432.275,362.525 424.375,352.675 "/>
<path fill="none" d="M410.525,345.175v0.351c-0.267,0.6,0.933,1.816,3.6,3.649l-2.1,1.25l2.5,8.25l0.35,0.25l9.5-6.25
	L410.525,345.175z"/>
<polygon fill="none" points="432.275,362.525 432.625,362.525 443.625,350.025 424.375,352.675 "/>
<polygon fill="none" points="435.125,338.275 435.025,338.275 424.375,352.675 443.625,350.025 443.525,349.525 "/>
<polygon fill="none" points="495.375,149.425 480.875,144.025 490.275,153.525 "/>
<path fill="none" d="M474.525,176.775l1.35-1.1c-3.167-1.167-4.75-2.05-4.75-2.65l-0.35-6l-0.4-0.5l-7.85,5.25l-2.65,1.65
	l-0.35,0.35l-45,29.9l1.1,12.5l49.25-33l5.4-3.65L474.525,176.775z"/>
<polygon fill="none" points="464.875,183.175 478.025,188.175 470.275,179.525 "/>
<polygon fill="none" points="485.025,183.275 492.775,180.425 492.875,177.175 "/>
<polygon fill="none" points="350.875,221.425 354.375,217.925 361.525,210.175 362.275,209.275 342.375,210.675 "/>
<polygon fill="none" points="500.375,162.925 490.525,153.775 493.025,176.675 499.025,165.675 499.125,165.425 499.275,165.175 
	499.375,164.925 499.525,164.675 "/>
<polygon fill="none" points="490.275,153.525 465.525,151.525 480.375,163.275 "/>
<polygon fill="none" points="480.875,144.025 465.525,151.525 490.275,153.525 "/>
<polygon fill="none" points="378.875,410.274 379.025,410.524 390.125,363.925 390.125,363.775 390.125,363.675 389.875,363.525 
	365.275,380.175 "/>
<polygon fill="none" points="490.525,153.775 500.375,162.925 495.375,149.425 490.275,153.525 "/>
<polygon fill="none" points="470.375,166.525 470.775,167.025 471.125,173.025 480.275,163.425 457.775,167.675 462.525,171.775 "/>
<polygon fill="none" points="462.525,171.775 457.775,167.675 457.775,167.925 459.875,173.425 "/>
<polygon fill="none" points="480.375,163.275 465.525,151.525 457.775,167.675 480.275,163.425 "/>
<polygon fill="none" points="457.775,167.925 457.525,169.275 457.775,170.025 459.525,173.775 459.875,173.425 "/>
<polygon fill="none" points="492.875,177.025 492.875,177.175 492.775,180.425 499.125,165.675 499.025,165.675 493.025,176.675 "/>
<polygon fill="none" points="407.275,419.274 405.875,389.925 390.125,363.775 390.125,363.925 "/>
<polygon fill="none" points="412.275,430.274 405.275,429.425 399.775,426.675 379.275,413.024 377.375,412.175 348.375,393.425 
	336.025,390.025 333.525,389.025 331.275,387.925 327.275,384.025 254.875,312.925 216.375,277.675 216.375,281.525 
	234.025,297.675 237.375,301.175 237.775,301.175 282.625,343.775 341.625,399.675 348.775,401.275 366.275,413.425 
	370.775,414.024 384.125,422.175 389.625,424.024 389.875,424.425 404.125,433.524 404.775,434.274 412.025,438.774 
	427.375,448.925 426.275,446.175 424.525,442.675 426.275,441.925 413.275,429.524 413.275,430.774 "/>
<polygon fill="none" points="407.375,420.675 413.125,428.774 405.875,389.925 407.275,419.274 "/>
<polygon fill="none" points="413.275,430.774 413.275,429.524 413.125,428.774 412.275,430.274 "/>
<polygon fill="none" points="407.275,420.774 405.275,429.425 412.275,430.274 413.125,428.774 407.375,420.675 "/>
<polygon fill="none" points="492.875,177.025 474.525,176.775 470.275,179.525 478.025,188.175 478.775,188.175 484.775,183.425 
	485.025,183.275 492.875,177.175 "/>
<polygon fill="none" points="274.275,52.425 260.275,45.525 260.125,45.675 250.775,60.425 274.125,52.525 "/>
<polygon fill="none" points="308.525,139.025 303.125,139.675 239.625,147.925 239.275,149.425 240.025,149.425 266.025,146.925 
	268.525,149.175 268.525,155.425 309.875,150.025 315.275,149.425 321.525,148.525 389.875,139.775 391.275,139.525 
	392.125,139.425 389.375,136.525 388.025,134.175 388.375,132.775 389.125,128.675 388.525,128.675 314.775,138.175 "/>
<polygon fill="none" points="271.275,76.175 273.275,77.025 277.525,78.925 388.525,127.925 389.025,123.775 266.875,70.425 
	269.775,72.925 "/>
<polygon fill="none" points="272.025,68.675 273.125,68.775 275.525,66.175 282.275,69.025 274.275,52.425 274.125,52.525 "/>
<polygon fill="none" points="268.525,69.925 271.525,69.675 271.875,68.775 "/>
<polygon fill="none" points="271.875,68.775 271.525,69.675 273.125,68.775 272.025,68.675 "/>
<polygon fill="none" points="257.125,78.275 256.125,80.425 263.625,83.925 263.875,83.925 269.775,72.925 266.875,70.425 
	257.625,73.525 "/>
<polygon fill="none" points="392.125,139.425 391.275,139.525 396.125,146.275 397.525,146.775 399.525,147.175 399.525,147.025 "/>
<polygon fill="none" points="391.275,139.525 389.875,139.775 351.875,182.275 351.125,183.175 347.625,187.175 343.525,191.775 
	344.025,192.525 349.875,197.175 351.525,198.425 353.375,196.525 358.275,191.275 359.775,189.675 360.125,189.175 
	397.625,148.775 397.525,146.775 396.125,146.275 "/>
<polygon fill="none" points="423.125,120.525 423.375,120.425 400.625,110.525 400.375,110.525 400.025,111.675 394.625,129.525 "/>
<polygon fill="none" points="394.525,129.775 394.625,129.525 400.025,111.675 388.775,132.675 388.375,132.775 388.025,134.175 "/>
<polygon fill="none" points="399.525,147.025 399.525,147.175 399.775,147.275 410.775,137.425 394.525,129.775 "/>
<polygon fill="none" points="394.525,129.775 410.775,137.425 423.125,120.525 394.625,129.525 "/>
<polygon fill="none" points="217.625,125.175 216.375,124.925 216.025,125.175 215.875,125.175 215.525,125.425 215.125,125.675 
	214.775,125.925 214.525,126.025 214.125,126.275 214.025,126.425 213.625,126.525 213.625,126.675 210.275,128.775 
	210.275,128.925 209.875,129.025 209.625,129.275 209.375,129.425 209.125,129.675 206.025,131.675 204.025,133.025 
	203.025,133.775 230.375,133.275 "/>
<polygon fill="none" points="133.275,53.525 132.025,59.425 134.025,59.925 147.625,62.025 "/>
<polygon fill="none" points="149.525,57.275 150.275,58.775 150.375,58.775 183.775,114.925 186.375,119.425 188.875,123.525 
	197.775,138.525 198.125,138.275 147.525,53.675 149.375,57.275 "/>
<polygon fill="none" points="148.025,62.175 148.375,61.425 149.375,57.275 147.525,53.675 147.375,53.425 147.275,53.175 
	147.025,52.775 146.875,52.525 146.625,52.175 146.525,51.925 146.375,51.675 146.025,51.025 145.275,49.775 133.275,53.425 
	133.275,53.525 147.625,62.025 "/>
<polygon fill="none" points="110.875,178.775 111.125,162.425 150.775,158.425 146.125,140.775 91.025,160.525 92.025,161.525 
	93.125,162.425 93.625,163.025 95.025,164.175 95.375,164.675 97.025,166.025 97.125,166.275 97.525,166.275 "/>
<path fill="none" d="M155.625,149.775l1.15-3.5l-3.75-9.6l8.5-6.15l0.6-1.75c-0.066-0.5-1.232-1.167-3.5-2l-31-14.25l6.9,21.25
	l11.6,7l6.4,6.25L155.625,149.775z"/>
<polygon fill="none" points="162.275,157.175 152.525,147.025 146.125,140.775 150.775,158.425 "/>
<polygon fill="none" points="223.525,127.525 223.625,127.675 230.625,130.775 258.025,68.425 257.875,68.175 249.275,71.175 
	248.775,71.025 248.525,71.425 247.625,73.175 247.625,73.425 243.375,83.025 243.275,83.275 242.125,85.675 242.275,85.675 "/>
<polygon fill="none" points="195.775,140.675 193.275,154.025 194.125,154.025 202.275,135.675 202.625,134.275 202.775,134.025 
	198.125,138.275 197.775,138.525 "/>
<polygon fill="none" points="258.025,68.425 257.625,73.525 266.875,70.425 266.525,70.025 268.525,69.925 271.875,68.775 
	272.025,68.675 250.775,60.425 250.525,60.775 249.275,71.175 257.875,68.175 "/>
<polygon fill="none" points="274.125,52.525 250.775,60.425 272.025,68.675 "/>
<polygon fill="none" points="202.275,135.675 197.275,152.525 224.375,143.675 224.525,143.675 203.025,133.775 202.775,134.025 
	202.625,134.275 "/>
<polygon fill="none" points="363.625,237.675 342.275,251.925 348.375,259.925 349.125,260.775 368.375,248.025 376.625,242.525 
	404.875,223.525 404.375,216.925 403.775,211.025 371.775,232.175 "/>
<polygon fill="none" points="230.375,133.525 230.375,133.275 203.025,133.775 224.525,143.675 "/>
<polygon fill="none" points="415.125,328.175 415.125,326.925 414.275,327.425 "/>
<polygon fill="none" points="345.125,179.425 344.775,179.675 342.375,181.275 340.525,182.675 340.275,183.525 339.375,186.775 
	338.775,186.275 336.875,185.275 334.125,187.425 347.625,187.175 351.125,183.175 346.025,179.925 "/>
<polygon fill="none" points="339.375,186.775 340.275,183.525 340.525,182.675 342.375,181.275 341.875,180.525 321.525,148.525 
	315.275,149.425 338.775,186.275 "/>
<polygon fill="none" points="351.125,183.175 351.875,182.275 346.025,179.925 "/>
<polygon fill="none" points="269.025,197.425 268.525,155.425 268.525,149.175 266.025,146.925 266.375,193.175 266.525,200.525 
	268.875,202.525 "/>
<polygon fill="none" points="333.775,187.275 334.125,187.425 336.875,185.275 338.775,186.275 315.275,149.425 309.875,150.025 
	333.275,186.525 "/>
<polygon fill="none" points="341.875,180.525 342.375,181.275 344.775,179.675 "/>
<polygon fill="none" points="241.625,205.025 251.875,204.175 268.875,202.525 266.525,200.525 213.275,205.275 216.025,207.275 
	240.125,205.175 "/>
<polygon fill="none" points="362.275,209.275 365.525,195.675 363.275,193.025 359.775,189.675 358.275,191.275 362.025,208.675 "/>
<polygon fill="none" points="358.275,191.275 353.375,196.525 362.025,208.675 "/>
<polygon fill="none" points="329.025,203.925 342.375,210.675 351.525,198.425 349.875,197.175 328.875,203.775 "/>
<polygon fill="none" points="334.025,187.525 343.525,191.775 347.625,187.175 334.125,187.425 "/>
<polygon fill="none" points="333.775,187.775 333.525,188.525 328.875,203.775 349.875,197.175 344.025,192.525 343.525,191.775 
	334.025,187.525 "/>
<polygon fill="none" points="362.275,209.275 362.025,208.675 353.375,196.525 351.525,198.425 342.375,210.675 "/>
<polygon fill="none" points="346.025,326.425 346.625,329.675 346.775,330.025 347.025,331.675 347.125,332.275 347.275,332.925 
	347.375,333.525 347.525,334.175 347.625,334.775 347.775,335.525 347.875,336.175 348.025,336.675 348.025,336.775 
	349.875,346.275 351.875,350.775 357.775,331.675 356.125,330.675 "/>
<polygon fill="none" points="349.375,345.525 349.625,346.175 349.875,346.275 348.025,336.775 "/>
<polygon fill="none" points="221.275,213.425 247.525,220.525 240.125,205.175 216.025,207.275 216.025,208.525 220.525,212.775 "/>
<polygon fill="none" points="348.875,345.175 336.625,338.925 336.625,339.275 347.525,388.525 349.625,346.175 349.375,345.525 "/>
<polygon fill="none" points="97.525,166.275 97.125,166.275 110.875,179.175 110.875,178.775 "/>
<polygon fill="none" points="400.375,316.175 346.775,273.175 346.025,276.025 345.875,276.675 341.775,281.275 341.875,281.275 
	342.025,281.275 342.375,281.525 342.625,281.775 343.025,282.025 343.275,282.275 343.625,282.525 343.875,282.775 
	344.275,283.025 344.525,283.275 344.775,283.425 345.125,283.775 345.375,283.925 345.775,284.275 346.025,284.425 
	346.375,284.775 346.625,284.925 347.025,285.275 347.275,285.425 347.625,285.775 347.875,285.925 348.125,286.175 
	348.525,286.425 348.775,286.675 349.125,286.925 349.375,287.175 349.775,287.425 350.025,287.675 350.375,287.925 
	350.625,288.175 350.875,288.275 351.275,288.675 351.525,288.775 351.875,289.175 352.125,289.275 352.525,289.675 
	352.775,289.775 353.125,290.175 353.375,290.275 353.775,290.675 354.025,290.775 354.275,291.025 354.625,291.275 
	354.875,291.525 355.275,291.775 355.525,292.025 355.875,292.275 356.125,292.525 356.525,292.775 356.775,293.025 
	357.125,293.275 357.375,293.525 357.625,293.675 358.025,294.025 358.275,294.175 358.625,294.525 358.875,294.675 
	359.275,295.025 359.525,295.175 359.875,295.525 360.125,295.675 360.375,295.925 360.775,296.175 361.025,296.425 
	361.375,296.675 361.625,296.925 362.025,297.175 362.275,297.425 362.625,297.675 362.875,297.925 363.275,298.175 
	363.525,298.425 363.775,298.525 364.125,298.925 364.375,299.025 364.775,299.425 365.025,299.525 365.375,299.925 
	365.625,300.025 366.025,300.425 366.275,300.525 366.525,300.775 366.875,301.025 367.125,301.275 367.525,301.525 
	367.775,301.775 368.125,302.025 368.375,302.275 368.775,302.525 369.025,302.775 369.375,303.025 369.625,303.275 
	370.025,303.525 370.275,303.775 370.525,303.925 370.875,304.275 371.125,304.425 371.525,304.775 371.775,304.925 
	372.125,305.275 372.375,305.425 372.625,305.675 373.025,305.925 373.275,306.175 373.625,306.425 373.875,306.675 
	374.275,306.925 374.525,307.175 374.875,307.425 375.125,307.675 375.525,307.925 375.775,308.175 376.125,308.425 
	376.375,308.675 376.625,308.775 377.025,309.175 377.275,309.275 377.625,309.675 377.875,309.775 378.275,310.175 
	378.525,310.275 378.875,310.675 379.125,310.775 379.375,311.025 379.775,311.275 380.025,311.525 380.375,311.775 
	380.625,312.025 381.025,312.275 381.275,312.525 381.625,312.775 381.875,313.025 382.275,313.275 382.525,313.525 
	382.875,313.775 383.125,314.025 383.525,314.275 383.775,314.525 384.125,314.775 384.375,315.025 384.625,315.175 
	385.025,315.525 385.275,315.675 385.525,315.925 385.875,316.175 386.125,316.425 386.525,316.675 386.775,316.925 
	387.125,317.175 387.375,317.425 387.775,317.675 388.025,317.925 388.375,318.175 388.625,318.425 389.025,318.675 
	389.275,318.925 389.625,319.175 389.875,319.425 390.275,319.675 390.525,319.925 390.875,320.175 391.125,320.425 
	391.525,320.675 392.125,321.175 392.775,321.675 393.375,322.175 394.025,322.675 394.625,323.175 395.275,323.675 
	395.875,324.175 396.525,324.675 397.125,325.175 398.275,326.025 398.875,326.525 399.525,327.025 400.125,327.525 
	400.775,328.025 401.375,328.525 402.025,329.025 402.625,329.525 403.275,330.025 406.375,332.525 410.875,336.175 
	412.775,337.525 416.775,340.425 418.775,331.275 417.025,329.525 416.525,329.275 416.375,329.175 416.025,328.925 
	415.275,328.275 415.125,328.175 414.275,327.425 "/>
<polygon fill="none" points="368.375,248.025 400.375,316.175 414.275,327.425 415.125,326.925 414.775,323.425 414.625,323.025 
	376.625,242.525 "/>
<polygon fill="none" points="277.375,278.525 274.275,275.175 215.875,212.675 216.275,253.425 278.025,279.675 "/>
<polygon fill="none" points="274.125,274.775 273.875,274.425 221.275,213.425 220.525,212.775 216.025,210.175 215.875,212.675 
	274.275,275.175 "/>
<polygon fill="none" points="216.025,208.525 216.025,210.175 220.525,212.775 "/>
<polygon fill="none" points="216.275,253.425 216.375,276.025 255.775,312.025 278.025,279.675 "/>
<polygon fill="none" points="331.125,385.175 331.275,385.425 347.625,390.025 347.525,388.525 336.625,339.275 "/>
<polygon fill="none" points="336.625,338.925 336.375,338.675 255.875,312.025 331.125,385.175 336.625,339.275 "/>
<polygon fill="none" points="279.775,281.275 278.025,279.675 255.775,312.025 255.875,312.025 336.375,338.675 "/>
</svg>
